<svg enable-background="new 0 0 512 512" viewBox="0 0 512 512" xmlns="http://www.w3.org/2000/svg" xmlns:xlink="http://www.w3.org/1999/xlink"><linearGradient id="SVGID_1_" gradientUnits="userSpaceOnUse" x1="51.824" x2="489.817" y1="474.983" y2="36.99"><stop offset="0" stop-color="#0061ff"/><stop offset="1" stop-color="#60efff"/></linearGradient><g id="_x32_4_Economy"><path d="m110.723 6.009c-37.185 0-67.47 30.091-67.47 67.475.112 396.21-.319 365.257.333 371.602 3.314 34.131 32.151 60.904 67.138 60.904h1.768 339.338.019c9.339 0 16.938-7.599 16.938-16.938-.004-121.203-.007-209.025-.014-330.037 0-4.02-3.261-7.281-7.281-7.281s-7.281 3.261-7.281 7.281v212.015h-294.724v-350.458h144.763v61.279c0 6.4 3.479 12.306 9.078 15.411 5.594 3.114 12.448 2.939 17.881-.46l27.85-17.393 27.855 17.393c2.849 1.778 6.087 2.674 9.329 2.674 2.944 0 5.888-.735 8.547-2.214 5.598-3.105 9.078-9.012 9.078-15.411v-61.279h37.961c1.313 0 2.38 1.067 2.38 2.38v98.686c0 4.02 3.261 7.281 7.281 7.281s7.281-3.261 7.281-7.281v-98.686c0-9.343-7.599-16.942-16.942-16.942-37.206-.001-347.302-.001-341.106-.001zm343.485 450.217h-343.49c-9.77 0-17.715-7.945-17.715-17.715 0-9.821 8.01-17.715 17.715-17.715h343.49zm0-49.993h-343.49c-17.61 0-32.277 14.292-32.277 32.277 0 17.796 14.482 32.277 32.277 32.277h343.49v18.265c0 1.308-1.067 2.375-2.38 2.375h-339.337c-27.156 0-51.624-20.845-54.418-47.812-3.013-31.384 21.624-58.023 52.645-58.023h343.49zm-309.283-35.202h-34.207c-20.146 0-39.42 8.73-52.903 25.672v-323.218c0-29.276 23.725-52.913 52.908-52.913 2.742 0 35.463 0 34.202 0zm254.38-350.459v61.279c0 1.569-.986 2.351-1.579 2.678-.583.327-1.778.758-3.1-.081l-31.709-19.801c-1.18-.735-2.522-1.105-3.859-1.105s-2.678.37-3.859 1.105l-31.704 19.801c-1.332.834-2.527.403-3.105.081-.593-.327-1.579-1.109-1.579-2.678v-61.279zm-11.126 168.503h-166.569c-11.42 0-20.711 9.286-20.711 20.706v92.642c0 11.42 9.291 20.706 20.711 20.706h166.569c11.42 0 20.706-9.286 20.706-20.706v-92.642c0-11.42-9.286-20.706-20.706-20.706zm6.144 113.348c0 3.389-2.754 6.144-6.144 6.144h-166.569c-3.389 0-6.148-2.754-6.148-6.144v-92.642c0-3.389 2.759-6.144 6.148-6.144h166.569c3.389 0 6.144 2.754 6.144 6.144zm-17.27-66.01c0 4.02-3.261 7.281-7.281 7.281h-129.755c-4.02 0-7.281-3.261-7.281-7.281s3.261-7.281 7.281-7.281h129.755c4.02-.001 7.281 3.261 7.281 7.281zm-19.862 39.378c0 4.02-3.261 7.281-7.281 7.281h-90.03c-4.02 0-7.281-3.261-7.281-7.281s3.261-7.281 7.281-7.281h90.03c4.02 0 7.281 3.261 7.281 7.281z" fill="url(#SVGID_1_)"/></g><g id="Layer_1"/></svg>